Coordinates
version=1
nRows=11
nColumns=63
inDegrees=yes

Units are S.I. units (second, meters, Newtons, ...)
If the header above contains a line with 'inDegrees', this indicates whether rotational values are in degrees (yes) or radians (no).

endheader
time	pelvis_tilt	pelvis_list	pelvis_rotation	pelvis_tx	pelvis_ty	pelvis_tz	hip_flexion_r	hip_adduction_r	hip_rotation_r	knee_angle_r	knee_angle_r_beta	ankle_angle_r	subtalar_angle_r	mtp_angle_r	hip_flexion_l	hip_adduction_l	hip_rotation_l	knee_angle_l	knee_angle_l_beta	ankle_angle_l	subtalar_angle_l	mtp_angle_l	L5_S1_Flex_Ext	L5_S1_Lat_Bending	L5_S1_axial_rotation	L4_L5_Flex_Ext	L4_L5_Lat_Bending	L4_L5_axial_rotation	L3_L4_Flex_Ext	L3_L4_Lat_Bending	L3_L4_axial_rotation	L2_L3_Flex_Ext	L2_L3_Lat_Bending	L2_L3_axial_rotation	L1_L2_Flex_Ext	L1_L2_Lat_Bending	L1_L2_axial_rotation	L1_T12_Flex_Ext	L1_T12_Lat_Bending	L1_T12_axial_rotation	Abs_r3	Abs_r2	Abs_r1	Abs_t1	Abs_t2	neck_flexion	neck_bending	neck_rotation	arm_flex_r	arm_add_r	arm_rot_r	elbow_flex_r	pro_sup_r	wrist_flex_r	wrist_dev_r	arm_flex_l	arm_add_l	arm_rot_l	elbow_flex_l	pro_sup_l	wrist_flex_l	wrist_dev_l
      4.16949153	     -3.27356582	     -3.88184288	     81.34329758	      0.10624423	      1.03895355	      0.32539146	      8.44010129	     -2.76604128	    -10.27539342	     17.10069367	      0.29846341	     42.07011881	     18.24072106	      0.00000000	      6.32335385	      1.23175718	     -8.54450262	     14.33408734	      0.25017702	     34.74992837	      5.22359035	      0.00000000	     -0.24977056	     -0.00372249	      0.90535256	     -0.46384891	     -0.00495091	      0.96193709	     -0.41034805	     -0.00905086	      0.96193709	     -0.28546277	     -0.00905086	      0.79218349	     -0.23193694	     -0.00759090	      0.73559895	     -0.14271890	     -0.00576613	      0.67901442	     -1.78408614	     -0.04210953	      5.03529931	      0.00000000	      0.00000000	     21.04653229	     -1.44051352	     -2.61546892	      3.64478711	    -15.10162967	    101.30895093	     11.71476065	      6.92880691	     -5.65074674	     -6.80531485	      8.04499261	    -14.43379286	    126.41999612	     13.21093056	      6.46751020	     -9.34603844	     -7.48990225
      4.18644068	     -3.37245336	     -3.81886720	     81.47707767	      0.10602201	      1.03928076	      0.32571576	      8.39305549	     -2.90528874	    -10.39752112	     17.03866967	      0.29738089	     42.02561320	     18.27573602	      0.00000000	      6.39089381	      1.33943018	     -8.77864253	     14.42416787	      0.25174922	     34.76657499	      5.50864270	      0.00000000	     -0.26157030	     -0.01852463	      0.83290527	     -0.48576221	     -0.02463776	      0.88496185	     -0.42973385	     -0.04504079	      0.88496185	     -0.29894870	     -0.04504079	      0.72879211	     -0.24289418	     -0.03777543	      0.67673553	     -0.14946127	     -0.02869466	      0.62467895	     -1.86837051	     -0.20955435	      4.63236924	      0.00000000	      0.00000000	     20.65253244	     -1.06193078	     -2.43645278	      4.00787141	    -14.92677148	    103.55615794	     11.47656162	      5.49017141	     -5.36758019	     -6.65201131	      8.22576321	    -14.23715220	    129.64430121	     12.68742265	      5.76328306	     -9.21192618	     -7.45609512
      4.20338983	     -3.39751397	     -3.76971324	     81.49998950	      0.10594943	      1.03958129	      0.32594863	      8.37545841	     -2.95279663	    -10.35541447	     17.01190335	      0.29691373	     42.03140594	     18.25956853	      0.00000000	      6.44468022	      1.34345005	     -9.25579917	     14.51121927	      0.25326855	     34.88328334	      6.05044325	      0.00000000	     -0.27167888	     -0.02275052	      0.79998382	     -0.50453484	     -0.03025819	      0.84998281	     -0.44634123	     -0.05531560	      0.84998281	     -0.31050179	     -0.05531560	      0.69998584	     -0.25228101	     -0.04639285	      0.64998685	     -0.15523731	     -0.03524055	      0.59998786	     -1.94057506	     -0.25735839	      4.44927000	      0.00000000	      0.00000000	     20.40135437	     -0.88505803	     -2.34654217	      4.19739309	    -14.87481469	    103.92660901	     11.46176326	      5.43987843	     -5.44421526	     -6.58894880	      8.40020793	    -14.00134712	    132.30090525	     12.10181740	      5.83351674	     -8.94798834	     -7.14883951
      4.22033898	     -3.42924804	     -3.77236420	     81.71819387	      0.10566166	      1.03977548	      0.32602704	      8.38557715	     -3.04708062	    -10.60597821	     17.00711073	      0.29683008	     42.12966141	     18.30676506	      0.00000000	      6.53460787	      1.39523902	     -9.28021527	     14.54946082	      0.25393600	     34.96469455	      6.41782904	      0.00000000	     -0.27362869	     -0.02814305	      0.75353125	     -0.50815584	     -0.03743026	      0.80062695	     -0.44954458	     -0.06842702	      0.80062695	     -0.31273023	     -0.06842702	      0.65933984	     -0.25409160	     -0.05738931	      0.61224414	     -0.15635143	     -0.04359359	      0.56514844	     -1.95450238	     -0.31835983	      4.19091474	      0.00000000	      0.00000000	     20.34492213	     -0.79410507	     -2.34982961	      4.32363175	    -14.79008837	    104.56264489	     11.34781022	      5.35478454	     -5.39897651	     -6.63686033	      8.64850659	    -13.72011506	    135.73621086	     11.40751389	      5.83052225	     -8.65970949	     -6.73679116
      4.23728814	     -3.49670195	     -3.81579022	     81.57936826	      0.10595911	      1.03978159	      0.32611009	      8.52882754	     -3.12704374	    -10.43446244	     17.09522158	      0.29836790	     42.26759168	     18.27190409	      0.00000000	      6.63237835	      1.40757560	     -9.82736026	     14.61861512	      0.25514297	     35.12353370	      7.08216569	      0.00000000	     -0.27112260	     -0.03850007	      0.80395323	     -0.50350179	     -0.05120509	      0.85420030	     -0.44542733	     -0.09360907	      0.85420030	     -0.30986602	     -0.09360907	      0.70345907	     -0.25176445	     -0.07850934	      0.65321200	     -0.15491946	     -0.05963661	      0.60296492	     -1.93660165	     -0.43552049	      4.47134666	      0.00000000	      0.00000000	     20.46631194	     -0.83035976	     -2.56291485	      4.31283638	    -14.72050040	    104.72563964	     11.27603673	      5.32078184	     -5.37487513	     -6.86221569	      8.96796656	    -13.40453112	    140.04633237	     10.61063245	      5.56441914	     -8.39260071	     -6.39462813
      4.25423729	     -3.54011891	     -3.90197003	     81.64146131	      0.10606899	      1.03962761	      0.32608059	      8.66287441	     -3.21415422	    -10.58802453	     17.19132098	      0.30004515	     42.41222773	     18.28935998	      0.00000000	      6.78041641	      1.42842631	     -9.87898446	     14.74819053	      0.25740448	     35.17592602	      7.34990367	      0.00000000	     -0.26356910	     -0.04724960	      0.84132427	     -0.48947417	     -0.06284197	      0.89390703	     -0.43301767	     -0.11488268	      0.89390703	     -0.30123312	     -0.11488268	      0.73615873	     -0.24475027	     -0.09635139	      0.68357597	     -0.15060338	     -0.07318963	      0.63099320	     -1.88264772	     -0.53449695	      4.67919318	      0.00000000	      0.00000000	     20.67123758	     -0.91704104	     -2.95789161	      4.19064359	    -14.63522026	    104.64162627	     11.17493381	      5.29528410	     -5.33989958	     -7.19686637	      9.25526928	    -13.14856008	    144.07896327	      9.88330847	      5.43235884	     -8.43906033	     -6.19478497
      4.27118644	     -3.55999418	     -4.00088571	     81.62121672	      0.10639998	      1.03937351	      0.32597373	      8.78689658	     -3.25922083	    -10.68601845	     17.29328487	      0.30182476	     42.46660275	     18.27009856	      0.00000000	      6.89282383	      1.38142494	    -10.10016510	     14.90681640	      0.26017303	     35.16332222	      7.73176799	      0.00000000	     -0.25309358	     -0.05389230	      0.90632978	     -0.47002009	     -0.07167675	      0.96297539	     -0.41580744	     -0.13103373	      0.96297539	     -0.28926065	     -0.13103373	      0.79303856	     -0.23502270	     -0.10989717	      0.73639295	     -0.14461767	     -0.08347917	      0.67974733	     -1.80782213	     -0.60964043	      5.04073433	      0.00000000	      0.00000000	     20.85431045	     -1.02398417	     -3.39338003	      4.01121072	    -14.54636673	    104.60182158	     11.06496893	      5.11615315	     -5.29030183	     -7.56730036	      9.49186610	    -13.04400210	    146.43460881	      9.51508359	      5.74804686	     -8.86255368	     -6.20823747
      4.28813559	     -3.63052047	     -4.07535680	     81.61933622	      0.10668900	      1.03911102	      0.32575321	      8.87973179	     -3.37122715	    -10.85477898	     17.44391778	      0.30445380	     42.49977449	     18.24719762	      0.00000000	      6.94996231	      1.50261580	     -9.34593647	     15.03456979	      0.26240274	     34.80953032	      6.75727451	      0.00000000	     -0.24273706	     -0.06730704	      0.96726945	     -0.45078700	     -0.08951837	      1.02772379	     -0.39879272	     -0.16365034	      1.02772379	     -0.27742419	     -0.16365034	      0.84636077	     -0.22540564	     -0.13725252	      0.78590643	     -0.13869996	     -0.10425861	      0.72545209	     -1.73384657	     -0.76139073	      5.37966251	      0.00000000	      0.00000000	     20.96209174	     -1.04512574	     -3.80526741	      3.75214886	    -14.50029282	    103.74403211	     11.09090809	      5.42115827	     -5.29066132	     -7.91766431	      9.60258308	    -13.00920370	    148.05577954	      9.31437429	      5.28655002	     -9.54561783	     -6.49820922
      4.30508475	     -3.60364636	     -4.09972223	     81.62841675	      0.10721281	      1.03899657	      0.32529083	      8.82470320	     -3.34726943	    -10.98211984	     17.49531822	      0.30535091	     42.42256683	     18.17437415	      0.00000000	      6.86936286	      1.42430302	     -9.31403935	     15.13715180	      0.26419314	     34.54897863	      6.77264659	      0.00000000	     -0.23461386	     -0.07109719	      0.99608151	     -0.43570140	     -0.09455927	      1.05833661	     -0.38544711	     -0.17286571	      1.05833661	     -0.26814018	     -0.17286571	      0.87157132	     -0.21786243	     -0.14498140	      0.80931623	     -0.13405836	     -0.11012955	      0.74706113	     -1.67582333	     -0.80426566	      5.53990655	      0.00000000	      0.00000000	     21.01409995	     -1.03820117	     -3.82409134	      3.63328846	    -14.44900545	    103.75328803	     11.13634356	      5.42216347	     -5.27104071	     -7.94533455	      9.56744799	    -13.08000508	    148.03713576	      9.25145121	      5.26575263	     -9.65856648	     -6.54884447
      4.32203390	     -3.73605130	     -4.20034394	     81.53203592	      0.10751799	      1.03874584	      0.32540002	      9.02329488	     -3.51598838	    -11.14656276	     17.79173623	      0.31052438	     42.40033933	     18.24403411	      0.00000000	      6.98562492	      1.57510163	     -8.79511236	     15.33178228	      0.26759008	     34.06654916	      5.68594006	      0.00000000	     -0.22294731	     -0.09385499	      1.07881322	     -0.41403544	     -0.12482713	      1.14623905	     -0.36628013	     -0.22819902	      1.14623905	     -0.25480648	     -0.22819902	      0.94396157	     -0.20702887	     -0.19138909	      0.87653574	     -0.12739209	     -0.14538138	      0.80910991	     -1.59249032	     -1.06170639	      6.00003548	      0.00000000	      0.00000000	     21.10010257	     -1.14368433	     -4.70193367	      3.38123077	    -14.30146777	    103.38512933	     10.97970327	      5.16354431	     -5.12435946	     -8.26946445	      9.68271937	    -13.27361018	    147.13871715	      9.79801236	      4.90116580	    -11.36338976	     -7.40394540
      4.33898305	     -3.86135160	     -4.20806327	     81.30282736	      0.10804660	      1.03867854	      0.32520431	      9.07758884	     -3.62554028	    -10.91189548	     17.97424961	      0.31370984	     42.30847637	     18.21720305	      0.00000000	      6.91370210	      1.78523621	     -7.97391965	     15.31305109	      0.26726316	     33.49890423	      4.00725228	      0.00000000	     -0.21538465	     -0.11560449	      1.13987304	     -0.39999083	     -0.15375397	      1.21111510	     -0.35385544	     -0.28108075	      1.21111510	     -0.24616311	     -0.28108075	      0.99738891	     -0.20000618	     -0.23574067	      0.92614684	     -0.12307079	     -0.17907135	      0.85490478	     -1.53847101	     -1.30774107	      6.33963187	      0.00000000	      0.00000000	     21.08906679	     -1.09286719	     -5.08686176	      3.27403155	    -14.19017601	    103.47587026	     10.93606945	      5.02571271	     -5.07933844	     -8.33884860	      9.56638490	    -13.58384619	    144.33825342	     10.27665670	      5.38377015	    -11.86951103	     -7.87488578
